<svg width="236" height="48" viewBox="0 0 236 48" fill="none" xmlns="http://www.w3.org/2000/svg">
<path d="M38.343 41.6281C34.4191 45.8746 29.0892 47.9956 22.349 47.9956C15.6087 47.9956 10.2789 45.8746 6.35498 41.6281C2.43559 37.3862 0.473633 31.5071 0.473633 24C0.473633 16.493 2.43559 10.6139 6.3595 6.36745C10.2834 2.12098 15.6132 0 22.3535 0C29.0938 0 34.4236 2.12098 38.3475 6.36745C42.2714 10.6139 44.2334 16.4884 44.2334 24C44.2334 31.5117 42.2714 37.3862 38.3475 41.6326L38.343 41.6281ZM33.099 24C33.099 13.974 29.5187 8.96327 22.3535 8.96327C15.1883 8.96327 11.608 13.9785 11.608 24C11.608 34.0216 15.1883 39.0368 22.3535 39.0368C29.5187 39.0368 33.099 34.0261 33.099 24Z" fill="#3C4394"/>
<path d="M50.8205 47.6741C49.8802 47.8007 49.0484 47.5249 48.3251 46.842C47.5972 46.1591 47.2356 45.327 47.2356 44.3457V44.0879C47.2356 42.1252 48.429 40.7368 50.8159 39.9273C52.3077 39.4163 53.3204 38.444 53.8538 37.0149C54.3872 35.5859 54.654 33.2071 54.654 29.8787V17.7181C54.654 16.7368 55.0156 15.8821 55.7434 15.1585C56.4667 14.4349 57.3211 14.0686 58.3021 14.0686H79.3502C80.3311 14.0686 81.172 14.4304 81.8772 15.1585C82.5824 15.8821 82.9305 16.7368 82.9305 17.7181V43.699C82.9305 44.6803 82.5779 45.535 81.8772 46.2586C81.172 46.9867 80.3311 47.3485 79.3502 47.3485H76.1496C75.1686 47.3485 74.3142 46.9867 73.5909 46.2586C72.8631 45.535 72.5014 44.6803 72.5014 43.699V22.1319C72.5014 21.7928 72.3115 21.6209 71.9273 21.6209H65.404C65.0198 21.6209 64.8299 21.7928 64.8299 22.1319V31.0907C64.8299 36.5537 63.8173 40.5107 61.792 42.9618C59.7668 45.4175 56.1096 46.9822 50.8205 47.6651V47.6741Z" fill="#3C4394"/>
<path d="M99.8828 47.9955C96.9399 47.9955 94.5213 47.0458 92.6227 45.1464C90.724 43.247 89.7747 40.7824 89.7747 37.7569C89.7747 29.9921 95.5339 26.1074 107.048 26.1074H109.349C109.733 26.1074 109.923 25.9355 109.923 25.5964V25.2753C109.923 23.6563 109.507 22.4805 108.675 21.7569C107.844 21.0333 106.447 20.667 104.485 20.667C101.881 20.667 98.7707 21.074 95.1452 21.8835C94.2501 22.0554 93.4499 21.8609 92.7447 21.3092C92.0395 20.7575 91.6914 20.0294 91.6914 19.1339V19.0073C91.6914 17.94 92.0214 16.9723 92.6814 16.0949C93.3414 15.2221 94.1868 14.6975 95.2085 14.5257C98.9606 13.8021 102.202 13.4358 104.932 13.4358C110.52 13.4358 114.475 14.4398 116.799 16.4431C119.123 18.4511 120.284 21.775 120.284 26.4285V43.7083C120.284 44.6897 119.923 45.5444 119.195 46.268C118.467 46.9961 117.617 47.3579 116.636 47.3579H114.267C113.246 47.3579 112.369 47.0051 111.645 46.3041C110.918 45.5987 110.538 44.7349 110.493 43.7129V43.0074C110.493 42.9667 110.47 42.9441 110.429 42.9441C110.344 42.9441 110.303 42.9667 110.303 43.0074C107.618 46.3358 104.141 48 99.8738 48L99.8828 47.9955ZM107.048 32.1266C101.845 32.1266 99.2454 33.7275 99.2454 36.9248C99.2454 38.078 99.5844 38.9825 100.267 39.6427C100.95 40.303 101.867 40.6331 103.016 40.6331C105.063 40.6331 106.727 39.9819 108.006 38.6795C109.286 37.3771 109.928 35.6405 109.928 33.4652V32.6964C109.928 32.312 109.738 32.1221 109.354 32.1221H107.053L107.048 32.1266Z" fill="#3C4394"/>
<path d="M132.702 47.3572C131.721 47.3572 130.866 46.9955 130.143 46.2674C129.415 45.5438 129.054 44.6891 129.054 43.7077V4.28649C129.054 3.30514 129.415 2.45042 130.143 1.72685C130.866 1.00327 131.721 0.636963 132.702 0.636963H136.35C137.331 0.636963 138.172 0.99875 138.877 1.72685C139.582 2.45494 139.93 3.30514 139.93 4.28649V20.6031C139.93 20.6483 139.953 20.6664 139.994 20.6664C140.08 20.6664 140.12 20.6438 140.12 20.6031L150.997 3.70763C152.276 1.65901 154.13 0.636963 156.562 0.636963H161.937C162.705 0.636963 163.257 0.980661 163.6 1.65901C163.939 2.34188 163.899 3.00215 163.474 3.64432L150.486 22.5884C150.274 22.8869 150.274 23.1853 150.486 23.4838L164.175 44.3454C164.599 44.983 164.631 45.6478 164.269 46.3307C163.908 47.0135 163.343 47.3527 162.574 47.3527H157.199C154.767 47.3527 152.936 46.3307 151.698 44.2821L140.12 25.4691C140.12 25.4284 140.08 25.4058 139.994 25.4058C139.953 25.4058 139.93 25.4284 139.93 25.4691V43.7077C139.93 44.6891 139.578 45.5438 138.877 46.2674C138.172 46.9955 137.331 47.3572 136.35 47.3572H132.702Z" fill="#3C4394"/>
<path d="M186.245 47.9952C180.445 47.9952 175.978 46.521 172.841 43.5814C169.708 40.6374 168.14 36.3502 168.14 30.7199C168.14 25.0896 169.537 20.8567 172.33 17.89C175.124 14.9234 179.165 13.4446 184.455 13.4446C194.603 13.4446 199.766 18.989 199.933 30.0823C199.933 31.1043 199.54 31.9681 198.749 32.6736C197.958 33.379 197.054 33.7273 196.032 33.7273H178.953C178.528 33.7273 178.356 33.9217 178.442 34.3016C178.781 36.6487 179.69 38.322 181.159 39.3259C182.633 40.3299 184.839 40.8319 187.782 40.8319C189.703 40.8319 191.769 40.556 193.989 39.9997C194.884 39.7872 195.684 39.959 196.389 40.5108C197.094 41.067 197.442 41.7906 197.442 42.686V42.8126C197.442 43.8799 197.112 44.8522 196.452 45.725C195.792 46.5978 194.952 47.1224 193.925 47.2943C191.453 47.7646 188.894 47.9998 186.249 47.9998L186.245 47.9952ZM184.644 20.4135C182.723 20.4135 181.277 20.9155 180.296 21.9194C179.315 22.9234 178.695 24.6374 178.442 27.0704C178.442 27.4141 178.591 27.5814 178.89 27.5814H189.699C190.083 27.5814 190.273 27.3915 190.273 27.0071C190.101 22.6159 188.225 20.4135 184.644 20.4135Z" fill="#3C4394"/>
<path d="M214.969 47.9955C212.026 47.9955 209.608 47.0458 207.709 45.1464C205.81 43.247 204.861 40.7824 204.861 37.7569C204.861 29.9921 210.62 26.1074 222.134 26.1074H224.435C224.82 26.1074 225.01 25.9355 225.01 25.5964V25.2753C225.01 23.6563 224.594 22.4805 223.762 21.7569C222.93 21.0333 221.533 20.667 219.571 20.667C216.967 20.667 213.857 21.074 210.232 21.8835C209.337 22.0554 208.536 21.8609 207.831 21.3092C207.126 20.7575 206.778 20.0294 206.778 19.1339V19.0073C206.778 17.94 207.108 16.9723 207.768 16.0949C208.428 15.2221 209.273 14.6975 210.295 14.5257C214.047 13.8021 217.288 13.4358 220.019 13.4358C225.606 13.4358 229.562 14.4398 231.885 16.4431C234.209 18.4511 235.371 21.775 235.371 26.4285V43.7083C235.371 44.6897 235.009 45.5444 234.281 46.268C233.554 46.9961 232.704 47.3579 231.723 47.3579H229.354C228.332 47.3579 227.455 47.0051 226.732 46.3041C226.004 45.5987 225.624 44.7349 225.579 43.7129V43.0074C225.579 42.9667 225.557 42.9441 225.516 42.9441C225.43 42.9441 225.389 42.9667 225.389 43.0074C222.704 46.3358 219.228 48 214.96 48L214.969 47.9955ZM222.13 32.1266C216.927 32.1266 214.327 33.7275 214.327 36.9248C214.327 38.078 214.666 38.9825 215.349 39.6427C216.032 40.303 216.949 40.6331 218.097 40.6331C220.145 40.6331 221.809 39.9819 223.088 38.6795C224.368 37.3771 225.01 35.6405 225.01 33.4652V32.6964C225.01 32.312 224.82 32.1221 224.435 32.1221H222.134L222.13 32.1266Z" fill="#3C4394"/>
</svg>
